<svg version="1.1" xmlns="http://www.w3.org/2000/svg" viewBox="0 0 901.6221026444887 446.85098570586837" width="901.6221026444887" height="446.85098570586837">
  <!-- svg-source:excalidraw -->
  
  <defs>
    <style class="style-fonts">
      @font-face {
        font-family: "Virgil";
        src: url("https://excalidraw.com/Virgil.woff2");
      }
      @font-face {
        font-family: "Cascadia";
        src: url("https://excalidraw.com/Cascadia.woff2");
      }
      @font-face {
        font-family: "Assistant";
        src: url("https://excalidraw.com/Assistant-Regular.woff2");
      }
    </style>
    
  </defs>
  <g stroke-linecap="round" transform="translate(10 10) rotate(0 440.81105132224434 107.67703711025581)"><path d="M32 0 C261.48 0, 490.96 0, 849.62 0 M32 0 C234.76 0, 437.52 0, 849.62 0 M849.62 0 C870.96 0, 881.62 10.67, 881.62 32 M849.62 0 C870.96 0, 881.62 10.67, 881.62 32 M881.62 32 C881.62 91.4, 881.62 150.8, 881.62 183.35 M881.62 32 C881.62 68.77, 881.62 105.53, 881.62 183.35 M881.62 183.35 C881.62 204.69, 870.96 215.35, 849.62 215.35 M881.62 183.35 C881.62 204.69, 870.96 215.35, 849.62 215.35 M849.62 215.35 C684.03 215.35, 518.44 215.35, 32 215.35 M849.62 215.35 C563.68 215.35, 277.75 215.35, 32 215.35 M32 215.35 C10.67 215.35, 0 204.69, 0 183.35 M32 215.35 C10.67 215.35, 0 204.69, 0 183.35 M0 183.35 C0 146.45, 0 109.55, 0 32 M0 183.35 C0 138.23, 0 93.11, 0 32 M0 32 C0 10.67, 10.67 0, 32 0 M0 32 C0 10.67, 10.67 0, 32 0" stroke="#166534" stroke-width="2" fill="none"></path></g><g stroke-linecap="round" transform="translate(325.8047028565113 86.44742906615767) rotate(0 125 57.5)"><path d="M28.75 0 C93.74 0, 158.73 0, 221.25 0 M28.75 0 C67.46 0, 106.17 0, 221.25 0 M221.25 0 C240.42 0, 250 9.58, 250 28.75 M221.25 0 C240.42 0, 250 9.58, 250 28.75 M250 28.75 C250 44.68, 250 60.61, 250 86.25 M250 28.75 C250 45.77, 250 62.79, 250 86.25 M250 86.25 C250 105.42, 240.42 115, 221.25 115 M250 86.25 C250 105.42, 240.42 115, 221.25 115 M221.25 115 C168.42 115, 115.59 115, 28.75 115 M221.25 115 C169.3 115, 117.35 115, 28.75 115 M28.75 115 C9.58 115, 0 105.42, 0 86.25 M28.75 115 C9.58 115, 0 105.42, 0 86.25 M0 86.25 C0 70.32, 0 54.4, 0 28.75 M0 86.25 C0 70.25, 0 54.24, 0 28.75 M0 28.75 C0 9.58, 9.58 0, 28.75 0 M0 28.75 C0 9.58, 9.58 0, 28.75 0" stroke="#166534" stroke-width="2" fill="none"></path></g><g transform="translate(354.06153885651133 103.44742906615767) rotate(0 96.7431640625 11.5)"><text x="0" y="18.400390625" font-family="Helvetica, Segoe UI Emoji" font-size="20px" fill="#166534" text-anchor="start" style="white-space: pre;" direction="ltr" dominant-baseline="alphabetic">Adán Espino Santana</text></g><g stroke-linecap="round" transform="translate(621.8047028565113 86.44742906615767) rotate(0 125 38.5)"><path d="M19.25 0 C84.32 0, 149.38 0, 230.75 0 M19.25 0 C77.18 0, 135.11 0, 230.75 0 M230.75 0 C243.58 0, 250 6.42, 250 19.25 M230.75 0 C243.58 0, 250 6.42, 250 19.25 M250 19.25 C250 33.29, 250 47.33, 250 57.75 M250 19.25 C250 29.01, 250 38.77, 250 57.75 M250 57.75 C250 70.58, 243.58 77, 230.75 77 M250 57.75 C250 70.58, 243.58 77, 230.75 77 M230.75 77 C153.63 77, 76.51 77, 19.25 77 M230.75 77 C169.47 77, 108.19 77, 19.25 77 M19.25 77 C6.42 77, 0 70.58, 0 57.75 M19.25 77 C6.42 77, 0 70.58, 0 57.75 M0 57.75 C0 44.42, 0 31.09, 0 19.25 M0 57.75 C0 45.46, 0 33.17, 0 19.25 M0 19.25 C0 6.42, 6.42 0, 19.25 0 M0 19.25 C0 6.42, 6.42 0, 19.25 0" stroke="#166534" stroke-width="2" fill="none"></path></g><g stroke-linecap="round" transform="translate(29.804702856511312 86.44742906615767) rotate(0 125 38.5)"><path d="M19.25 0 C92.37 0, 165.49 0, 230.75 0 M19.25 0 C76.08 0, 132.91 0, 230.75 0 M230.75 0 C243.58 0, 250 6.42, 250 19.25 M230.75 0 C243.58 0, 250 6.42, 250 19.25 M250 19.25 C250 31.19, 250 43.12, 250 57.75 M250 19.25 C250 29.77, 250 40.29, 250 57.75 M250 57.75 C250 70.58, 243.58 77, 230.75 77 M250 57.75 C250 70.58, 243.58 77, 230.75 77 M230.75 77 C150.14 77, 69.52 77, 19.25 77 M230.75 77 C150.03 77, 69.31 77, 19.25 77 M19.25 77 C6.42 77, 0 70.58, 0 57.75 M19.25 77 C6.42 77, 0 70.58, 0 57.75 M0 57.75 C0 43.58, 0 29.41, 0 19.25 M0 57.75 C0 46.19, 0 34.62, 0 19.25 M0 19.25 C0 6.42, 6.42 0, 19.25 0 M0 19.25 C0 6.42, 6.42 0, 19.25 0" stroke="#166534" stroke-width="2" fill="none"></path></g><g transform="translate(404.11524985651135 132.44742906615767) rotate(0 46.689453125 11.5)"><text x="0" y="18.400390625" font-family="Helvetica, Segoe UI Emoji" font-size="20px" fill="#166534" text-anchor="start" style="white-space: pre;" direction="ltr" dominant-baseline="alphabetic">Comunero</text></g><g transform="translate(392.99610885651134 163.44742906615767) rotate(0 57.80859374999994 9.200000000000003)"><text x="0" y="14.720312499999999" font-family="Helvetica, Segoe UI Emoji" font-size="16px" fill="#166534" text-anchor="start" style="white-space: pre;" direction="ltr" dominant-baseline="alphabetic">(Representante)</text></g><g transform="translate(647.3076328565114 103.44742906615767) rotate(0 99.4970703125 11.5)"><text x="0" y="18.400390625" font-family="Helvetica, Segoe UI Emoji" font-size="20px" fill="#166534" text-anchor="start" style="white-space: pre;" direction="ltr" dominant-baseline="alphabetic">Agustín Espino Castro</text></g><g transform="translate(48.06153885651133 103.44742906615767) rotate(0 106.7431640625 11.5)"><text x="0" y="18.400390625" font-family="Helvetica, Segoe UI Emoji" font-size="20px" fill="#166534" text-anchor="start" style="white-space: pre;" direction="ltr" dominant-baseline="alphabetic">Lidia E. Santana Alonso</text></g><g transform="translate(108.11524985651135 129.44742906615767) rotate(0 46.689453125 11.5)"><text x="0" y="18.400390625" font-family="Helvetica, Segoe UI Emoji" font-size="20px" fill="#166534" text-anchor="start" style="white-space: pre;" direction="ltr" dominant-baseline="alphabetic">Comunero</text></g><g transform="translate(700.1152498565114 129.44742906615767) rotate(0 46.689453125 11.5)"><text x="0" y="18.400390625" font-family="Helvetica, Segoe UI Emoji" font-size="20px" fill="#166534" text-anchor="start" style="white-space: pre;" direction="ltr" dominant-baseline="alphabetic">Comunero</text></g><g stroke-linecap="round"><g transform="translate(280.10560048768116 124.31182692970036) rotate(0 22.848959993057633 0)"><path d="M0 0 C7.62 0, 38.08 0, 45.7 0 M0 0 C7.62 0, 38.08 0, 45.7 0" stroke="#166534" stroke-width="2" fill="none"></path></g></g><mask></mask><g stroke-linecap="round"><g transform="translate(576.3556269099179 124.31182692970036) rotate(0 22.680976715814154 0)"><path d="M0 0 C7.56 0, 37.8 0, 45.36 0 M0 0 C7.56 0, 37.8 0, 45.36 0" stroke="#166534" stroke-width="2" fill="none"></path></g></g><mask></mask><g transform="translate(317.12062119689233 20.679892958341) rotate(0 133.69042968749994 20.7)"><text x="0" y="33.120703125" font-family="Helvetica, Segoe UI Emoji" font-size="36px" fill="#166534" text-anchor="start" style="white-space: pre;" direction="ltr" dominant-baseline="alphabetic">PROPIETARIOS</text></g><g stroke-linecap="round"><g transform="translate(450.80470254585646 225.8149651563168) rotate(0 0 47.78756488555054)"><path d="M0 0 C0 15.93, 0 79.65, 0 95.58 M0 0 C0 15.93, 0 79.65, 0 95.58" stroke="#166534" stroke-width="2" fill="none"></path></g></g><mask></mask><g stroke-linecap="round" transform="translate(295.4504638565113 321.85098570586837) rotate(0 155.35423881235 57.5)"><path d="M28.75 0 C125.66 0, 222.57 0, 281.96 0 M28.75 0 C99.45 0, 170.16 0, 281.96 0 M281.96 0 C301.13 0, 310.71 9.58, 310.71 28.75 M281.96 0 C301.13 0, 310.71 9.58, 310.71 28.75 M310.71 28.75 C310.71 41.69, 310.71 54.64, 310.71 86.25 M310.71 28.75 C310.71 51.27, 310.71 73.79, 310.71 86.25 M310.71 86.25 C310.71 105.42, 301.13 115, 281.96 115 M310.71 86.25 C310.71 105.42, 301.13 115, 281.96 115 M281.96 115 C229.52 115, 177.09 115, 28.75 115 M281.96 115 C201.9 115, 121.84 115, 28.75 115 M28.75 115 C9.58 115, 0 105.42, 0 86.25 M28.75 115 C9.58 115, 0 105.42, 0 86.25 M0 86.25 C0 66.38, 0 46.5, 0 28.75 M0 86.25 C0 71.6, 0 56.94, 0 28.75 M0 28.75 C0 9.58, 9.58 0, 28.75 0 M0 28.75 C0 9.58, 9.58 0, 28.75 0" stroke="#166534" stroke-width="2" fill="none"></path></g><g transform="translate(338.77687119689233 358.650985958341) rotate(0 112.03417968749994 20.69999999999999)"><text x="0" y="33.120703125" font-family="Helvetica, Segoe UI Emoji" font-size="36px" fill="#166534" text-anchor="start" style="white-space: pre;" direction="ltr" dominant-baseline="alphabetic">EMPLEADOS</text></g></svg>